# xmcd CD database file
#
# Track frame offsets:
#	150
#	17673
#	33823
#	50883
#	67758
#	86666
#	110507
#	129147
#	144121
#	165652
#	182874
#	201126
#	219623
#	232492
#	249462
#
# Disc length: 3598 seconds
#
# Revision: 1
# Processed by: cddbd v1.5.2PL0 Copyright (c) Steve Scherf et al.
# Submitted via: CDex 1.51
#
DISCID=cf0e0c0f
DTITLE=Various Artist - Viejitas Pero Duritas
DYEAR=2002
DGENRE=Salsa
TTITLE0=la sonora malecon - que se mueva paqui
TTITLE1=la renovacion de cali - la cuestion
TTITLE2=freddy cruz y su fuerza latina - obando (el vikingo)
TTITLE3=los brujos del son - pario la luna
TTITLE4=los del caney - la clave
TTITLE5=fruko y sus tesos - hipocresia
TTITLE6=joe arroyo y la verdad - con gusto y gana
TTITLE7=wilson saoko y su orquesta - amor sin amor
TTITLE8=rafa y su charanga - la rumba
TTITLE9=son de oriente - por mentirosa
TTITLE10=los bunkers - bomba y tamborito
TTITLE11=the latin brothers - a la patrona de cuba
TTITLE12=las sonora dinamita - llego el timbal
TTITLE13=luis felipe gonzalez - la verdad
TTITLE14=los brujos del son - las dos ranas
EXTD=YEAR: 2002
EXTT0=
EXTT1=
EXTT2=
EXTT3=
EXTT4=
EXTT5=
EXTT6=
EXTT7=
EXTT8=
EXTT9=
EXTT10=
EXTT11=
EXTT12=
EXTT13=
EXTT14=
PLAYORDER=
